<?xml version="1.0" standalone="no"?>
<!DOCTYPE svg PUBLIC "-//W3C//DTD SVG 20010904//EN"
 "http://www.w3.org/TR/2001/REC-SVG-20010904/DTD/svg10.dtd">
<svg version="1.0" xmlns="http://www.w3.org/2000/svg"
 width="1456.000000pt" height="910.000000pt" viewBox="0 0 1456.000000 910.000000"
 preserveAspectRatio="xMidYMid meet">

<g transform="translate(0.000000,910.000000) scale(0.100000,-0.100000)"
fill="#000000" stroke="none">
<path d="M3450 6480 l0 -450 455 0 455 0 0 450 0 450 -455 0 -455 0 0 -450z"/>
<path d="M4520 6270 l0 -230 225 0 225 0 0 230 0 230 -225 0 -225 0 0 -230z"/>
<path d="M4070 5410 l0 -450 450 0 450 0 0 450 0 450 -450 0 -450 0 0 -450z"/>
<path d="M3450 5620 l0 -230 228 2 227 3 0 225 0 225 -227 3 -228 2 0 -230z"/>
</g>
</svg>
